<svg width="16" height="16" viewBox="0 0 16 16" fill="none" xmlns="http://www.w3.org/2000/svg">
<g clip-path="url(#clip0_121_1254)">
<path fill-rule="evenodd" clip-rule="evenodd" d="M14.0801 8.03996C14.0801 11.3757 11.3758 14.08 8.04008 14.08C4.70431 14.08 2.00008 11.3757 2.00008 8.03996C2.00008 7.48767 2.44779 7.03996 3.00008 7.03996C3.55236 7.03996 4.00008 7.48767 4.00008 8.03996C4.00008 10.2712 5.80888 12.08 8.04008 12.08C10.2713 12.08 12.0801 10.2712 12.0801 8.03996C12.0801 5.80876 10.2713 3.99996 8.04008 3.99996C7.51651 3.99996 7.01854 4.09901 6.56208 4.27858C6.04813 4.48076 5.46759 4.22802 5.26541 3.71407C5.06324 3.20012 5.31598 2.61959 5.82992 2.41741C6.51586 2.14758 7.26193 1.99996 8.04008 1.99996C11.3758 1.99996 14.0801 4.70419 14.0801 8.03996Z" fill="#B89EFF"/>
</g>
<defs>
<clipPath id="clip0_121_1254">
<rect width="16" height="16" fill="white"/>
</clipPath>
</defs>
</svg>
